<svg width="275" height="423" viewBox="0 0 275 423" fill="none" xmlns="http://www.w3.org/2000/svg">
<path d="M27.4081 5.72673C64.0553 -7.58596 116.611 3.50794 122.626 26.6627C126.917 43.1611 103.373 50.2448 86.8567 88.6836C68.1505 132.212 85.0415 162.923 68.5331 171.528C54.8823 178.642 29.6283 165.374 18.6551 147.279C7.77946 129.349 19.2551 120.406 13.0898 84.0287C7.44944 50.7545 -5.51133 38.4088 2.59665 23.0647C8.04198 12.7579 18.9176 8.80753 27.4081 5.72673Z" fill="#FF5887"/>
<path d="M164.934 405.181C117.995 408.142 107.956 429.441 83.0494 420.995C50.6071 409.997 39.9991 357.463 35.6888 326.301C29.5571 281.963 18.9991 177.463 143.464 265.281C217.499 235.963 220.763 149.697 244.942 155.291C273.833 161.963 274.702 260.738 274.906 284.247C275.302 329.316 275.851 392.641 243.984 410.488C223.484 421.964 211.682 402.233 164.947 405.194L164.934 405.181Z" fill="#FF5887"/>
</svg>
