<svg width="44" height="44" viewBox="0 0 44 44" fill="none" xmlns="http://www.w3.org/2000/svg">
<g clip-path="url(#clip0_212_280)">
<path d="M43.0769 0H0.92308C0.41354 0 0 0.41354 0 0.92308V43.0765C0 43.586 0.41354 43.9995 0.92308 43.9995H23.3193V29.2972H18.5927C18.1842 29.2972 17.8533 28.9663 17.8533 28.5578V22.5975C17.8533 22.189 18.1842 21.8576 18.5927 21.8576H23.3198V17.7439C23.3198 12.3236 26.7329 8.82142 32.0147 8.82142L36.7169 8.8288C37.1244 8.82926 37.4554 9.16019 37.4554 9.56819V15.1025C37.4554 15.511 37.1244 15.8419 36.716 15.8419L33.5484 15.8433C31.3658 15.8433 30.9661 16.6944 30.9661 18.3702V21.8576H36.4949C36.6911 21.8576 36.8789 21.9356 37.0178 22.0745C37.1563 22.2135 37.2343 22.4013 37.2343 22.5975L37.2324 28.5583C37.2324 28.9667 36.9015 29.2981 36.493 29.2981H30.9656V44H43.0765C43.586 44 43.9995 43.5865 43.9995 43.0769V0.92308C44 0.413078 43.5869 0 43.0769 0Z" fill="#393939"/>
</g>
<defs>
<clipPath id="clip0_212_280">
<rect width="44" height="44" fill="white"/>
</clipPath>
</defs>
</svg>
