<svg width="393" height="577" viewBox="0 0 393 577" fill="none" xmlns="http://www.w3.org/2000/svg">
<path d="M-469.998 575.139L-469.998 16.6523C-469.84 16.7187 -469.668 16.7907 -469.482 16.8671C-468.205 17.3937 -466.276 18.1546 -463.66 19.0978C-458.428 20.9845 -450.444 23.6022 -439.409 26.5378C-417.338 32.4089 -383.06 39.5536 -334.175 44.6763C-236.406 54.9217 -80.2016 57.0789 153.65 24.7776C382.053 -6.77122 585.854 -1.93515 732.553 10.7881C805.901 17.1496 864.972 25.4825 905.701 32.2244C926.066 35.5953 941.845 38.5683 952.531 40.6981C957.874 41.763 961.943 42.6166 964.676 43.2041C966.042 43.4979 967.074 43.7251 967.764 43.8787C967.848 43.8974 967.926 43.916 968 43.9324L967.999 575.139L-469.998 575.139Z" fill="#FFA67A" stroke="#FFC8AD" stroke-width="2"/>
</svg>
