<svg width="393" height="599" viewBox="0 0 393 599" fill="none" xmlns="http://www.w3.org/2000/svg">
<path d="M-482.222 594.658L-489.89 24.9291C-489.72 24.9973 -489.534 25.0719 -489.332 25.1512C-488.023 25.6648 -486.049 26.406 -483.375 27.3236C-478.027 29.1591 -469.877 31.6991 -458.644 34.5311C-436.179 40.195 -401.38 47.0257 -351.989 51.7175C-253.21 61.1011 -96.0609 61.9305 137.525 27.7618C365.669 -5.61074 570.221 -2.51389 717.736 8.92639C791.493 14.6464 850.988 22.4525 892.04 28.8273C912.565 32.0147 928.48 34.8439 939.261 36.8762C944.652 37.8924 948.759 38.7091 951.518 39.2717C952.897 39.5529 953.938 39.7712 954.635 39.9184C954.723 39.937 954.805 39.9548 954.882 39.9711L962.449 602.337L-482.222 594.658Z" fill="#FFA67A" stroke="#FFC8AD" stroke-width="2"/>
</svg>
