<svg width="114" height="125" viewBox="0 0 114 125" fill="none" xmlns="http://www.w3.org/2000/svg">
<path d="M11.2759 2.35602C26.3528 -3.12092 47.9746 1.44319 50.4493 10.9692C52.2144 17.7568 42.5283 20.6711 35.7335 36.4851C28.0376 54.3931 34.9867 67.0276 28.195 70.5679C22.579 73.4945 12.1893 68.0361 7.67485 60.5916C3.20053 53.215 7.92171 49.536 5.38523 34.57C3.06475 20.8808 -2.2674 15.8016 1.06828 9.48898C3.30853 5.24868 7.78285 3.62348 11.2759 2.35602Z" fill="#FF5887"/>
<path d="M86.5463 120.398C75.2062 121.067 72.7808 125.881 66.7636 123.972C58.9258 121.486 52.5785 110.014 55.3217 102.57C58.0865 95.067 67.8498 97.7407 81.3591 88.779C97.911 77.7974 100.034 62.6556 105.875 63.92C112.855 65.428 113.065 87.7521 113.114 93.0656C113.21 103.252 113.343 117.564 105.644 121.597C100.691 124.191 97.84 119.732 86.5493 120.401L86.5463 120.398Z" fill="#FF5887"/>
</svg>
