<svg width="44" height="44" viewBox="0 0 44 44" fill="none" xmlns="http://www.w3.org/2000/svg">
<g clip-path="url(#clip0_212_283)">
<path d="M30.25 0H13.75C10.1033 0 6.60591 1.44866 4.02728 4.02728C1.44866 6.60591 0 10.1033 0 13.75L0 30.25C0 33.8967 1.44866 37.3941 4.02728 39.9727C6.60591 42.5513 10.1033 44 13.75 44H30.25C33.8967 44 37.3941 42.5513 39.9727 39.9727C42.5513 37.3941 44 33.8967 44 30.25V13.75C44 10.1033 42.5513 6.60591 39.9727 4.02728C37.3941 1.44866 33.8967 0 30.25 0ZM39.875 30.25C39.875 35.5575 35.5575 39.875 30.25 39.875H13.75C8.4425 39.875 4.125 35.5575 4.125 30.25V13.75C4.125 8.4425 8.4425 4.125 13.75 4.125H30.25C35.5575 4.125 39.875 8.4425 39.875 13.75V30.25Z" fill="#393939"/>
<path d="M22 11C19.0826 11 16.2847 12.1589 14.2218 14.2218C12.1589 16.2847 11 19.0826 11 22C11 24.9174 12.1589 27.7153 14.2218 29.7782C16.2847 31.8411 19.0826 33 22 33C24.9174 33 27.7153 31.8411 29.7782 29.7782C31.8411 27.7153 33 24.9174 33 22C33 19.0826 31.8411 16.2847 29.7782 14.2218C27.7153 12.1589 24.9174 11 22 11ZM22 28.875C20.1773 28.8728 18.4299 28.1478 17.1411 26.8589C15.8522 25.5701 15.1272 23.8227 15.125 22C15.125 18.2078 18.2105 15.125 22 15.125C25.7895 15.125 28.875 18.2078 28.875 22C28.875 25.7895 25.7895 28.875 22 28.875Z" fill="#393939"/>
<path d="M33.8251 11.6405C34.6346 11.6405 35.2909 10.9842 35.2909 10.1747C35.2909 9.36522 34.6346 8.70898 33.8251 8.70898C33.0156 8.70898 32.3594 9.36522 32.3594 10.1747C32.3594 10.9842 33.0156 11.6405 33.8251 11.6405Z" fill="#393939"/>
</g>
<defs>
<clipPath id="clip0_212_283">
<rect width="44" height="44" fill="white"/>
</clipPath>
</defs>
</svg>
