<svg width="44" height="44" viewBox="0 0 44 44" fill="none" xmlns="http://www.w3.org/2000/svg">
<g clip-path="url(#clip0_212_287)">
<path d="M40.0198 0H3.98016C1.782 0 0 1.782 0 3.98016V40.0197C0 42.218 1.782 44 3.98016 44H40.0197C42.218 44 44 42.218 44 40.0197V3.98016C44 1.782 42.218 0 40.0198 0ZM13.6155 37.9925C13.6155 38.6322 13.0969 39.1508 12.4572 39.1508H7.52665C6.88692 39.1508 6.36837 38.6322 6.36837 37.9925V17.3239C6.36837 16.6842 6.88692 16.1656 7.52665 16.1656H12.4572C13.0969 16.1656 13.6155 16.6842 13.6155 17.3239V37.9925ZM9.99192 14.2173C7.40502 14.2173 5.30787 12.1202 5.30787 9.53326C5.30787 6.94636 7.40502 4.84921 9.99192 4.84921C12.5788 4.84921 14.676 6.94636 14.676 9.53326C14.676 12.1202 12.5789 14.2173 9.99192 14.2173ZM39.3823 38.0858C39.3823 38.6739 38.9054 39.1508 38.3173 39.1508H33.0265C32.4384 39.1508 31.9615 38.6739 31.9615 38.0858V28.3911C31.9615 26.9448 32.3857 22.0536 28.182 22.0536C24.9213 22.0536 24.2599 25.4015 24.1271 26.9039V38.0858C24.1271 38.6739 23.6503 39.1508 23.0621 39.1508H17.945C17.3568 39.1508 16.88 38.6739 16.88 38.0858V17.2306C16.88 16.6425 17.3568 16.1656 17.945 16.1656H23.0621C23.6502 16.1656 24.1271 16.6425 24.1271 17.2306V19.0338C25.3362 17.2193 27.133 15.8188 30.9588 15.8188C39.4308 15.8188 39.3823 23.7337 39.3823 28.0826V38.0858Z" fill="#393939"/>
</g>
<defs>
<clipPath id="clip0_212_287">
<rect width="44" height="44" fill="white"/>
</clipPath>
</defs>
</svg>
