<svg width="42" height="41" viewBox="0 0 42 41" fill="none" xmlns="http://www.w3.org/2000/svg">
<rect x="11.7363" y="17.4498" width="10" height="16" rx="2.5" transform="rotate(-52.4367 11.7363 17.4498)" fill="#B3FFE5" stroke="#393939"/>
<path d="M8.84358 25.8514C9.00326 26.0767 9.31534 26.1299 9.54063 25.9702C9.76592 25.8105 9.81911 25.4984 9.65943 25.2731L9.2515 25.5622L8.84358 25.8514ZM6.98177 18.2641L7.48007 18.3052L6.98177 18.2641ZM10.6956 10.6191C10.656 10.3458 10.4023 10.1564 10.129 10.196L5.67558 10.8418C5.4023 10.8814 5.21288 11.135 5.25251 11.4083C5.29213 11.6816 5.5458 11.871 5.81908 11.8314L9.77768 11.2574L10.3517 15.216C10.3913 15.4893 10.645 15.6787 10.9183 15.6391C11.1915 15.5995 11.381 15.3458 11.3413 15.0725L10.6956 10.6191ZM9.2515 25.5622C9.65943 25.2731 9.65949 25.2732 9.65955 25.2733C9.65955 25.2733 9.6596 25.2734 9.65961 25.2734C9.65963 25.2734 9.65962 25.2734 9.65956 25.2733C9.65945 25.2732 9.65919 25.2728 9.65877 25.2722C9.65795 25.271 9.65651 25.269 9.6545 25.2661C9.65047 25.2603 9.6441 25.2511 9.63557 25.2386C9.6185 25.2136 9.59278 25.1754 9.55971 25.125C9.49356 25.0241 9.39814 24.8742 9.28398 24.6822C9.0554 24.2978 8.75307 23.7473 8.46011 23.0862C7.86982 21.7541 7.33844 20.0194 7.48007 18.3052L6.98177 18.2641L6.48347 18.2229C6.32201 20.177 6.9255 22.0914 7.54585 23.4913C7.85821 24.1962 8.18014 24.7825 8.42449 25.1933C8.54679 25.399 8.65001 25.5613 8.72338 25.6732C8.76007 25.7292 8.78932 25.7726 8.80979 25.8026C8.82003 25.8176 8.82808 25.8292 8.83376 25.8374C8.83661 25.8415 8.83886 25.8447 8.8405 25.847C8.84132 25.8482 8.84199 25.8491 8.8425 25.8499C8.84276 25.8502 8.84298 25.8505 8.84316 25.8508C8.84325 25.8509 8.84335 25.8511 8.8434 25.8511C8.84349 25.8513 8.84358 25.8514 9.2515 25.5622ZM6.98177 18.2641L7.48007 18.3052C7.62322 16.5727 8.39026 14.7513 9.14589 13.3375C9.52075 12.6362 9.88658 12.0465 10.1583 11.6328C10.2941 11.4261 10.4061 11.2638 10.4835 11.1539C10.5223 11.0989 10.5523 11.0571 10.5724 11.0295C10.5825 11.0157 10.59 11.0054 10.5949 10.9987C10.5974 10.9954 10.5991 10.993 10.6002 10.9916C10.6008 10.9908 10.6011 10.9903 10.6013 10.9901C10.6014 10.99 10.6015 10.9899 10.6015 10.9899C10.6015 10.9899 10.6015 10.9899 10.6015 10.9899C10.6014 10.9899 10.6014 10.99 10.2008 10.6908C9.80013 10.3917 9.80006 10.3918 9.79998 10.3919C9.79994 10.3919 9.79985 10.3921 9.79976 10.3922C9.7996 10.3924 9.79939 10.3927 9.79913 10.393C9.79862 10.3937 9.79793 10.3946 9.79707 10.3958C9.79535 10.3981 9.79294 10.4014 9.78985 10.4056C9.78368 10.4139 9.77482 10.426 9.76344 10.4417C9.74067 10.473 9.70781 10.5187 9.66622 10.5777C9.58304 10.6957 9.46484 10.8671 9.3225 11.0838C9.03804 11.5169 8.65595 12.1327 8.26396 12.8662C7.48585 14.3219 6.6434 16.2871 6.48347 18.2229L6.98177 18.2641Z" fill="#393939"/>
<path d="M32.6135 14.37C32.4538 14.1447 32.1417 14.0916 31.9164 14.2512C31.6911 14.4109 31.6379 14.723 31.7976 14.9483L32.2055 14.6592L32.6135 14.37ZM34.4753 21.9573L33.977 21.9162L34.4753 21.9573ZM30.7614 29.6023C30.8011 29.8756 31.0547 30.065 31.328 30.0254L35.7814 29.3796C36.0547 29.34 36.2441 29.0864 36.2045 28.8131C36.1649 28.5398 35.9112 28.3504 35.6379 28.39L31.6793 28.964L31.1054 25.0054C31.0657 24.7321 30.8121 24.5427 30.5388 24.5823C30.2655 24.6219 30.0761 24.8756 30.1157 25.1489L30.7614 29.6023ZM32.2055 14.6592C31.7976 14.9483 31.7975 14.9482 31.7975 14.9481C31.7975 14.9481 31.7974 14.948 31.7974 14.948C31.7974 14.948 31.7974 14.948 31.7975 14.9481C31.7976 14.9483 31.7978 14.9486 31.7983 14.9492C31.7991 14.9504 31.8005 14.9524 31.8025 14.9553C31.8066 14.9611 31.8129 14.9703 31.8215 14.9828C31.8385 15.0078 31.8643 15.046 31.8973 15.0964C31.9635 15.1973 32.0589 15.3473 32.173 15.5392C32.4016 15.9236 32.704 16.4741 32.9969 17.1352C33.5872 18.4673 34.1186 20.202 33.977 21.9162L34.4753 21.9573L34.9736 21.9985C35.135 20.0444 34.5315 18.13 33.9112 16.7301C33.5988 16.0252 33.2769 15.439 33.0325 15.0281C32.9102 14.8224 32.807 14.6601 32.7337 14.5482C32.697 14.4922 32.6677 14.4488 32.6472 14.4188C32.637 14.4038 32.629 14.3922 32.6233 14.384C32.6204 14.3799 32.6182 14.3767 32.6165 14.3744C32.6157 14.3732 32.615 14.3723 32.6145 14.3715C32.6143 14.3712 32.6141 14.3709 32.6139 14.3706C32.6138 14.3705 32.6137 14.3703 32.6136 14.3703C32.6135 14.3701 32.6135 14.37 32.2055 14.6592ZM34.4753 21.9573L33.977 21.9162C33.8338 23.6487 33.0668 25.4701 32.3111 26.8839C31.9363 27.5852 31.5705 28.1749 31.2987 28.5886C31.1629 28.7953 31.051 28.9576 30.9735 29.0675C30.9348 29.1225 30.9047 29.1643 30.8846 29.1919C30.8745 29.2057 30.867 29.216 30.8621 29.2227C30.8597 29.226 30.8579 29.2284 30.8568 29.2298C30.8563 29.2306 30.8559 29.2311 30.8557 29.2313C30.8556 29.2315 30.8556 29.2315 30.8555 29.2315C30.8555 29.2315 30.8556 29.2315 30.8556 29.2315C30.8556 29.2315 30.8556 29.2314 31.2563 29.5306C31.6569 29.8297 31.657 29.8296 31.657 29.8295C31.6571 29.8295 31.6572 29.8293 31.6573 29.8292C31.6574 29.829 31.6576 29.8287 31.6579 29.8284C31.6584 29.8277 31.6591 29.8268 31.66 29.8256C31.6617 29.8233 31.6641 29.82 31.6672 29.8158C31.6733 29.8075 31.6822 29.7954 31.6936 29.7797C31.7164 29.7484 31.7492 29.7027 31.7908 29.6437C31.874 29.5257 31.9922 29.3543 32.1345 29.1376C32.419 28.7045 32.8011 28.0887 33.1931 27.3553C33.9712 25.8995 34.8136 23.9343 34.9736 21.9985L34.4753 21.9573Z" fill="#393939"/>
</svg>
