<svg width="1440" height="157" viewBox="0 0 1440 157" fill="none" xmlns="http://www.w3.org/2000/svg">
<path d="M1441 -0.999896L1441 124.269C1440.78 124.222 1440.52 124.167 1440.23 124.109C1438.91 123.842 1436.92 123.455 1434.22 122.977C1428.82 122.019 1420.59 120.692 1409.26 119.209C1386.59 116.243 1351.5 112.653 1301.79 110.15C1202.38 105.143 1044.48 104.483 810.492 121.858C475.206 146.756 272.082 154.291 152.788 155.602C93.141 156.258 54.455 155.358 30.6882 154.294C18.8053 153.763 10.653 153.19 5.47591 152.752C2.88739 152.532 1.04275 152.346 -0.152159 152.215C-0.484828 152.179 -0.766915 152.144 -1.0009 152.117L-0.999465 -1.0004L1441 -0.999896Z" fill="#FFA67A" stroke="#FFC8AD" stroke-width="2"/>
</svg>
