<svg width="44" height="44" viewBox="0 0 44 44" fill="none" xmlns="http://www.w3.org/2000/svg">
<g clip-path="url(#clip0_212_289)">
<path d="M22.1808 0.000248825C17.0277 -0.0242496 12.0295 1.76097 8.0579 5.04456C4.08634 8.32815 1.39346 12.9017 0.448922 17.9676C-0.495611 23.0335 0.368145 28.2702 2.88954 32.7644C5.41094 37.2586 9.42997 40.7251 14.2457 42.5592C14.0669 40.7552 13.8854 38.2307 14.2457 36.2342L16.7702 25.2342C16.3029 24.2153 16.0569 23.1088 16.0483 21.9879C16.0483 18.9216 17.8523 16.5772 20.0152 16.5772C22.1781 16.5772 22.7198 18.021 22.7198 19.6435C22.7198 21.266 21.4576 24.3185 20.9158 27.0369C20.3741 29.7552 21.9979 31.0037 24.1608 31.0037C26.3237 31.0037 31.0138 26.8568 31.0138 20.9058C31.0138 14.9548 27.2271 11.8885 21.8151 11.8885C16.4031 11.8885 12.0773 16.756 12.0773 21.6262C12.0773 23.4302 12.7992 25.5931 13.6998 26.6752C13.7649 26.7484 13.8144 26.834 13.8454 26.9269C13.8764 27.0198 13.8881 27.118 13.8799 27.2156L13.3396 29.7401C13.1608 30.1004 12.9793 30.2805 12.6177 30.1004C9.91305 28.8381 8.10768 24.8713 8.10768 21.6249C8.10768 14.7719 13.1567 8.2805 22.7143 8.2805C32.2719 8.2805 36.2388 13.6911 36.2388 20.903C36.2388 28.1149 31.3713 34.609 24.8772 34.609C22.7129 34.609 20.5487 33.5269 19.8282 32.0845L18.3844 37.3136C17.8441 39.2977 16.5804 41.6421 15.6798 43.0845C18.6967 43.9827 21.8711 44.223 24.9888 43.7892C28.1065 43.3555 31.0948 42.2578 33.752 40.5702C36.4091 38.8826 38.6731 36.6445 40.3912 34.007C42.1093 31.3695 43.2414 28.394 43.711 25.2815C44.1807 22.1691 43.9769 18.992 43.1136 15.965C42.2502 12.938 40.7474 10.1315 38.7065 7.73504C36.6656 5.33859 34.1342 3.40799 31.2833 2.07364C28.4324 0.739279 25.3284 0.0322325 22.1808 0.000248825Z" fill="#393939"/>
</g>
<defs>
<clipPath id="clip0_212_289">
<rect width="44" height="44" fill="white"/>
</clipPath>
</defs>
</svg>
