<svg width="72" height="82" viewBox="0 0 72 82" fill="none" xmlns="http://www.w3.org/2000/svg">
<rect width="72" height="82" rx="3" fill="#FFA67A"/>
<circle cx="35.9998" cy="40.9998" r="22.3944" fill="#08FF55"/>
<path d="M66 41C66 57.5685 52.5685 71 36 71C19.4315 71 6 57.5685 6 41C6 24.4315 19.4315 11 36 11C52.5685 11 66 24.4315 66 41ZM9.47416 41C9.47416 55.6498 21.3502 67.5258 36 67.5258C50.6498 67.5258 62.5258 55.6498 62.5258 41C62.5258 26.3502 50.6498 14.4742 36 14.4742C21.3502 14.4742 9.47416 26.3502 9.47416 41Z" fill="#08FF55"/>
</svg>
