<svg width="56" height="56" viewBox="0 0 56 56" fill="none" xmlns="http://www.w3.org/2000/svg">
<path d="M34.6083 42.7373C34.1999 41.2707 32.3648 35.2397 26.37 29.2104C20.2809 23.086 14.1344 21.2233 12.692 20.8215L20.8223 12.6914C21.2243 14.1322 23.0974 20.313 29.2597 26.4175C35.2652 32.3661 41.259 34.1949 42.7385 34.6073L34.6083 42.7373Z" fill="#08FF55"/>
<path d="M48.5715 51.1993L37.3694 45.9905C36.4268 45.3637 35.514 44.5698 34.9705 43.5917C32.4364 39.0297 39.0297 32.4365 43.5918 34.9706C44.5699 35.5141 45.3638 36.4268 45.9906 37.3694L51.1995 48.5713C52.2141 50.7542 50.7544 52.2139 48.5715 51.1993Z" fill="#08FF55"/>
<path d="M4.36801 6.99483L9.57694 18.1968C9.84802 18.6479 10.717 20.0101 11.9758 20.5956C12.9638 21.0548 13.7188 20.8145 14.4886 20.4808C17.2823 19.2719 19.2725 17.2818 20.4818 14.4877C20.8153 13.7167 21.0559 12.9629 20.5966 11.9749C20.0118 10.7169 18.6489 9.84721 18.1977 9.57613L6.99603 4.36686C4.81313 3.35228 3.35341 4.81197 4.36801 6.99483Z" fill="#08FF55"/>
<path d="M42.7379 20.9584C41.2712 21.3667 35.2402 23.2018 29.2107 29.1965C23.0862 35.2855 21.2234 41.4319 20.8216 42.8742L12.6914 34.7441C14.1322 34.3422 20.3131 32.469 26.4177 26.3068C32.3664 20.3015 34.1953 14.3078 34.6077 12.8283L42.7379 20.9584Z" fill="#08FF55"/>
<path d="M51.1996 6.99504L45.9907 18.197C45.364 19.1395 44.57 20.0523 43.5919 20.5958C39.0298 23.1299 32.4365 16.5367 34.9706 11.9747C35.5141 10.9966 36.4269 10.2026 37.3695 9.5759L48.5716 4.36707C50.7545 3.35249 52.2142 4.81218 51.1996 6.99504Z" fill="#08FF55"/>
<path d="M6.99496 51.1983L18.1971 45.9895C18.6483 45.7184 20.0105 44.8494 20.5959 43.5907C21.0552 42.6027 20.8149 41.8477 20.4812 41.0779C19.2723 38.2843 17.2821 36.2941 14.488 35.0848C13.717 34.7513 12.9631 34.5108 11.9751 34.9701C10.7171 35.5548 9.84739 36.9177 9.57631 37.3688L4.36694 48.5703C3.35234 50.7532 4.81206 52.2129 6.99496 51.1983Z" fill="#08FF55"/>
</svg>
