<svg width="80" height="17" viewBox="0 0 80 17" fill="none" xmlns="http://www.w3.org/2000/svg">
<path d="M58.1439 16.2084C56.5495 15.2049 49.8609 11.2263 39.6367 11.1935C29.2514 11.1598 22.4412 15.2218 20.873 16.2084V0.790039C22.44 1.77503 29.2883 5.85969 39.7189 5.80502C49.8836 5.75118 56.5352 1.80195 58.1439 0.790039V16.2084Z" fill="#08FF55"/>
<path d="M77.2155 10.9919L63.2612 16.6747C61.9268 16.9742 60.4755 17.0869 59.1817 16.6747C53.1478 14.7518 53.1478 2.24804 59.1817 0.325151C60.4755 -0.0870159 61.9268 0.0256991 63.2612 0.325151L77.2155 6.00801C79.9344 7.11581 79.9344 9.88406 77.2155 10.9919Z" fill="#08FF55"/>
<path d="M2.03913 10.9915L15.9935 16.6744C16.6076 16.8451 18.5048 17.3128 20.0729 16.6744C21.3036 16.173 21.7412 15.2293 22.1121 14.1829C23.4596 10.3876 23.4596 6.61328 22.1121 2.81714C21.74 1.7699 21.3036 0.826966 20.0729 0.325636C18.506 -0.312802 16.6076 0.154881 15.9935 0.325636L2.03913 6.00765C-0.679711 7.11546 -0.679711 9.8837 2.03913 10.9915Z" fill="#08FF55"/>
</svg>
